<mxfile host="app.diagrams.net" modified="2022-06-30T08:13:16.428Z" agent="5.0 (Windows NT 10.0; Win64; x64) AppleWebKit/537.36 (KHTML, like Gecko) Chrome/102.0.5005.115 Safari/537.36 OPR/88.0.4412.53" etag="WEo1t4ve0jTcqz7HN5mY" version="20.0.3" type="github">
  <diagram id="xp2k2yEoacHLA-R72gTE" name="Page-1">
    <mxGraphModel dx="1382" dy="764" grid="1" gridSize="10" guides="1" tooltips="1" connect="0" arrows="1" fold="1" page="1" pageScale="1" pageWidth="1200" pageHeight="1600" math="0" shadow="0">
      <root>
        <mxCell id="0" />
        <mxCell id="1" parent="0" />
        <mxCell id="-_0yIz5kQHRdiEa7arz6-6" value="" style="rounded=0;whiteSpace=wrap;html=1;fillColor=#d5e8d4;strokeColor=#82b366;" parent="1" vertex="1">
          <mxGeometry x="390" y="464" width="600" height="150" as="geometry" />
        </mxCell>
        <mxCell id="-_0yIz5kQHRdiEa7arz6-10" value="" style="rounded=0;whiteSpace=wrap;html=1;fillColor=#f8cecc;strokeColor=#b85450;" parent="1" vertex="1">
          <mxGeometry x="390" y="667" width="600" height="87" as="geometry" />
        </mxCell>
        <mxCell id="-_0yIz5kQHRdiEa7arz6-11" value="" style="edgeStyle=orthogonalEdgeStyle;rounded=0;orthogonalLoop=1;jettySize=auto;html=1;strokeColor=#990000;" parent="1" source="-_0yIz5kQHRdiEa7arz6-12" target="-_0yIz5kQHRdiEa7arz6-14" edge="1">
          <mxGeometry relative="1" as="geometry" />
        </mxCell>
        <mxCell id="-_0yIz5kQHRdiEa7arz6-29" value="" style="edgeStyle=orthogonalEdgeStyle;rounded=0;orthogonalLoop=1;jettySize=auto;html=1;strokeColor=#990000;" parent="1" source="-_0yIz5kQHRdiEa7arz6-12" target="-_0yIz5kQHRdiEa7arz6-28" edge="1">
          <mxGeometry relative="1" as="geometry" />
        </mxCell>
        <mxCell id="-_0yIz5kQHRdiEa7arz6-12" value="Authentication" style="rounded=1;whiteSpace=wrap;html=1;dashed=1;strokeColor=#990000;" parent="1" vertex="1">
          <mxGeometry x="650" y="694" width="120" height="40" as="geometry" />
        </mxCell>
        <mxCell id="-_0yIz5kQHRdiEa7arz6-13" value="Domain" style="text;html=1;align=center;verticalAlign=middle;resizable=0;points=[];autosize=1;strokeColor=none;fillColor=none;fontStyle=1" parent="1" vertex="1">
          <mxGeometry x="920" y="637" width="70" height="30" as="geometry" />
        </mxCell>
        <mxCell id="-_0yIz5kQHRdiEa7arz6-14" value="AccountEntity" style="rounded=0;whiteSpace=wrap;html=1;strokeColor=#990000;" parent="1" vertex="1">
          <mxGeometry x="840" y="694" width="120" height="40" as="geometry" />
        </mxCell>
        <mxCell id="-_0yIz5kQHRdiEa7arz6-19" style="edgeStyle=orthogonalEdgeStyle;rounded=0;orthogonalLoop=1;jettySize=auto;html=1;strokeColor=#009900;fillColor=#d5e8d4;" parent="1" source="-_0yIz5kQHRdiEa7arz6-8" target="-_0yIz5kQHRdiEa7arz6-14" edge="1">
          <mxGeometry relative="1" as="geometry" />
        </mxCell>
        <mxCell id="-_0yIz5kQHRdiEa7arz6-20" style="edgeStyle=orthogonalEdgeStyle;rounded=0;orthogonalLoop=1;jettySize=auto;html=1;entryX=0.5;entryY=0;entryDx=0;entryDy=0;strokeColor=#009900;fillColor=#d5e8d4;" parent="1" source="-_0yIz5kQHRdiEa7arz6-8" target="-_0yIz5kQHRdiEa7arz6-12" edge="1">
          <mxGeometry relative="1" as="geometry" />
        </mxCell>
        <mxCell id="-_0yIz5kQHRdiEa7arz6-7" value="Service(Implements)" style="text;html=1;align=center;verticalAlign=middle;resizable=0;points=[];autosize=1;strokeColor=none;fillColor=none;fontStyle=1" parent="1" vertex="1">
          <mxGeometry x="850" y="434" width="140" height="30" as="geometry" />
        </mxCell>
        <mxCell id="-_0yIz5kQHRdiEa7arz6-23" value="" style="edgeStyle=orthogonalEdgeStyle;rounded=0;orthogonalLoop=1;jettySize=auto;html=1;strokeColor=#82b366;fillColor=#d5e8d4;" parent="1" source="-_0yIz5kQHRdiEa7arz6-8" target="-_0yIz5kQHRdiEa7arz6-22" edge="1">
          <mxGeometry relative="1" as="geometry" />
        </mxCell>
        <mxCell id="-_0yIz5kQHRdiEa7arz6-25" value="" style="edgeStyle=orthogonalEdgeStyle;rounded=0;orthogonalLoop=1;jettySize=auto;html=1;strokeColor=#009900;fillColor=#d5e8d4;" parent="1" source="-_0yIz5kQHRdiEa7arz6-8" target="-_0yIz5kQHRdiEa7arz6-24" edge="1">
          <mxGeometry relative="1" as="geometry" />
        </mxCell>
        <mxCell id="-_0yIz5kQHRdiEa7arz6-27" value="" style="edgeStyle=orthogonalEdgeStyle;rounded=0;orthogonalLoop=1;jettySize=auto;html=1;strokeColor=#009900;fillColor=#d5e8d4;" parent="1" source="-_0yIz5kQHRdiEa7arz6-8" target="-_0yIz5kQHRdiEa7arz6-26" edge="1">
          <mxGeometry relative="1" as="geometry" />
        </mxCell>
        <mxCell id="-_0yIz5kQHRdiEa7arz6-35" value="" style="edgeStyle=orthogonalEdgeStyle;rounded=0;orthogonalLoop=1;jettySize=auto;html=1;strokeColor=#009900;" parent="1" source="-_0yIz5kQHRdiEa7arz6-8" target="-_0yIz5kQHRdiEa7arz6-22" edge="1">
          <mxGeometry relative="1" as="geometry" />
        </mxCell>
        <mxCell id="-_0yIz5kQHRdiEa7arz6-36" value="" style="edgeStyle=orthogonalEdgeStyle;rounded=0;orthogonalLoop=1;jettySize=auto;html=1;strokeColor=#009900;" parent="1" source="-_0yIz5kQHRdiEa7arz6-8" target="-_0yIz5kQHRdiEa7arz6-22" edge="1">
          <mxGeometry relative="1" as="geometry" />
        </mxCell>
        <mxCell id="-_0yIz5kQHRdiEa7arz6-8" value="RemoteAuthentication" style="rounded=0;whiteSpace=wrap;html=1;strokeColor=#009900;" parent="1" vertex="1">
          <mxGeometry x="640" y="550.5" width="140" height="43.5" as="geometry" />
        </mxCell>
        <mxCell id="-_0yIz5kQHRdiEa7arz6-22" value="HttpClient" style="rounded=1;whiteSpace=wrap;html=1;dashed=1;strokeColor=#009900;" parent="1" vertex="1">
          <mxGeometry x="650" y="484" width="120" height="40" as="geometry" />
        </mxCell>
        <mxCell id="-_0yIz5kQHRdiEa7arz6-24" value="RemoteAccountModel" style="rounded=0;whiteSpace=wrap;html=1;strokeColor=#009900;" parent="1" vertex="1">
          <mxGeometry x="830" y="550.5" width="140" height="43.5" as="geometry" />
        </mxCell>
        <mxCell id="-_0yIz5kQHRdiEa7arz6-30" style="edgeStyle=orthogonalEdgeStyle;rounded=0;orthogonalLoop=1;jettySize=auto;html=1;strokeColor=#009900;fillColor=#d5e8d4;" parent="1" source="-_0yIz5kQHRdiEa7arz6-26" target="-_0yIz5kQHRdiEa7arz6-28" edge="1">
          <mxGeometry relative="1" as="geometry" />
        </mxCell>
        <mxCell id="-_0yIz5kQHRdiEa7arz6-26" value="RemoteAuthenticationParams" style="rounded=0;whiteSpace=wrap;html=1;strokeColor=#009900;" parent="1" vertex="1">
          <mxGeometry x="410" y="550.5" width="180" height="43.5" as="geometry" />
        </mxCell>
        <mxCell id="-_0yIz5kQHRdiEa7arz6-28" value="AuthenticationParams" style="rounded=0;whiteSpace=wrap;html=1;strokeColor=#990000;" parent="1" vertex="1">
          <mxGeometry x="435" y="694" width="130" height="40" as="geometry" />
        </mxCell>
        <mxCell id="EJ6Po2MF894XvXfakxfg-1" value="" style="rounded=0;whiteSpace=wrap;html=1;fillColor=#dae8fc;strokeColor=#6c8ebf;" parent="1" vertex="1">
          <mxGeometry x="390" y="280" width="600" height="120" as="geometry" />
        </mxCell>
        <mxCell id="EJ6Po2MF894XvXfakxfg-2" value="Infra" style="text;html=1;align=center;verticalAlign=middle;resizable=0;points=[];autosize=1;strokeColor=none;fillColor=none;fontStyle=1" parent="1" vertex="1">
          <mxGeometry x="940" y="250" width="50" height="30" as="geometry" />
        </mxCell>
        <mxCell id="EJ6Po2MF894XvXfakxfg-4" value="" style="edgeStyle=orthogonalEdgeStyle;rounded=0;orthogonalLoop=1;jettySize=auto;html=1;" parent="1" source="EJ6Po2MF894XvXfakxfg-3" target="-_0yIz5kQHRdiEa7arz6-22" edge="1">
          <mxGeometry relative="1" as="geometry" />
        </mxCell>
        <mxCell id="EJ6Po2MF894XvXfakxfg-7" value="" style="edgeStyle=orthogonalEdgeStyle;rounded=0;orthogonalLoop=1;jettySize=auto;html=1;" parent="1" source="EJ6Po2MF894XvXfakxfg-3" target="EJ6Po2MF894XvXfakxfg-5" edge="1">
          <mxGeometry relative="1" as="geometry">
            <mxPoint x="710" y="220" as="targetPoint" />
          </mxGeometry>
        </mxCell>
        <mxCell id="EJ6Po2MF894XvXfakxfg-3" value="HttpAdapter" style="rounded=0;whiteSpace=wrap;html=1;strokeColor=#009999;" parent="1" vertex="1">
          <mxGeometry x="650" y="310" width="120" height="60" as="geometry" />
        </mxCell>
        <mxCell id="EJ6Po2MF894XvXfakxfg-5" value="Http" style="rounded=0;whiteSpace=wrap;html=1;strokeColor=#666666;fillColor=#f5f5f5;fontColor=#333333;" parent="1" vertex="1">
          <mxGeometry x="650" y="150" width="120" height="60" as="geometry" />
        </mxCell>
        <mxCell id="yEf3IRso2apgzS4StsU_-1" value="" style="rounded=0;whiteSpace=wrap;html=1;fillColor=#fff2cc;strokeColor=#d6b656;" vertex="1" parent="1">
          <mxGeometry x="390" y="810" width="600" height="87" as="geometry" />
        </mxCell>
        <mxCell id="yEf3IRso2apgzS4StsU_-4" value="" style="edgeStyle=orthogonalEdgeStyle;rounded=0;orthogonalLoop=1;jettySize=auto;html=1;fillColor=#fff2cc;strokeColor=#d6b656;" edge="1" parent="1" source="yEf3IRso2apgzS4StsU_-2" target="yEf3IRso2apgzS4StsU_-3">
          <mxGeometry relative="1" as="geometry" />
        </mxCell>
        <mxCell id="yEf3IRso2apgzS4StsU_-10" style="edgeStyle=orthogonalEdgeStyle;rounded=0;orthogonalLoop=1;jettySize=auto;html=1;fillColor=#fff2cc;strokeColor=#d6b656;" edge="1" parent="1" source="yEf3IRso2apgzS4StsU_-2" target="-_0yIz5kQHRdiEa7arz6-12">
          <mxGeometry relative="1" as="geometry">
            <Array as="points">
              <mxPoint x="705" y="760" />
              <mxPoint x="705" y="760" />
            </Array>
          </mxGeometry>
        </mxCell>
        <mxCell id="yEf3IRso2apgzS4StsU_-2" value="Login Presenter" style="rounded=0;whiteSpace=wrap;html=1;strokeColor=#CCCC00;" vertex="1" parent="1">
          <mxGeometry x="640" y="833.5" width="130" height="40" as="geometry" />
        </mxCell>
        <mxCell id="yEf3IRso2apgzS4StsU_-3" value="Validation" style="rounded=1;whiteSpace=wrap;html=1;dashed=1;strokeColor=#CCCC00;" vertex="1" parent="1">
          <mxGeometry x="445" y="833.5" width="120" height="40" as="geometry" />
        </mxCell>
        <mxCell id="yEf3IRso2apgzS4StsU_-5" value="" style="rounded=0;whiteSpace=wrap;html=1;fillColor=#dae8fc;strokeColor=#6c8ebf;" vertex="1" parent="1">
          <mxGeometry x="390" y="950" width="600" height="87" as="geometry" />
        </mxCell>
        <mxCell id="yEf3IRso2apgzS4StsU_-12" value="" style="edgeStyle=orthogonalEdgeStyle;rounded=0;orthogonalLoop=1;jettySize=auto;html=1;fillColor=#dae8fc;strokeColor=#6c8ebf;" edge="1" parent="1" source="yEf3IRso2apgzS4StsU_-11" target="yEf3IRso2apgzS4StsU_-2">
          <mxGeometry relative="1" as="geometry" />
        </mxCell>
        <mxCell id="yEf3IRso2apgzS4StsU_-11" value="Login Page" style="rounded=0;whiteSpace=wrap;html=1;strokeColor=#6c8ebf;fillColor=#FFFFFF;" vertex="1" parent="1">
          <mxGeometry x="640" y="973.5" width="130" height="40" as="geometry" />
        </mxCell>
        <mxCell id="yEf3IRso2apgzS4StsU_-13" value="Presentation" style="text;html=1;align=center;verticalAlign=middle;resizable=0;points=[];autosize=1;strokeColor=none;fillColor=none;fontStyle=1" vertex="1" parent="1">
          <mxGeometry x="890" y="780" width="100" height="30" as="geometry" />
        </mxCell>
        <mxCell id="yEf3IRso2apgzS4StsU_-14" value="UI" style="text;html=1;align=center;verticalAlign=middle;resizable=0;points=[];autosize=1;strokeColor=none;fillColor=none;fontStyle=1" vertex="1" parent="1">
          <mxGeometry x="920" y="920" width="40" height="30" as="geometry" />
        </mxCell>
        <mxCell id="yEf3IRso2apgzS4StsU_-16" value="" style="rounded=0;whiteSpace=wrap;html=1;fillColor=#e1d5e7;strokeColor=#9673a6;" vertex="1" parent="1">
          <mxGeometry x="70" y="754" width="280" height="270" as="geometry" />
        </mxCell>
        <mxCell id="yEf3IRso2apgzS4StsU_-20" style="edgeStyle=orthogonalEdgeStyle;rounded=0;orthogonalLoop=1;jettySize=auto;html=1;fillColor=#e1d5e7;strokeColor=#9673a6;" edge="1" parent="1" source="yEf3IRso2apgzS4StsU_-17" target="yEf3IRso2apgzS4StsU_-3">
          <mxGeometry relative="1" as="geometry">
            <Array as="points">
              <mxPoint x="210" y="790" />
              <mxPoint x="500" y="790" />
            </Array>
          </mxGeometry>
        </mxCell>
        <mxCell id="yEf3IRso2apgzS4StsU_-17" value="RequiredFieldValidation" style="rounded=0;whiteSpace=wrap;html=1;strokeColor=#9673a6;fillColor=#FFFFFF;" vertex="1" parent="1">
          <mxGeometry x="127.5" y="800" width="165" height="40" as="geometry" />
        </mxCell>
        <mxCell id="yEf3IRso2apgzS4StsU_-21" style="edgeStyle=orthogonalEdgeStyle;rounded=0;orthogonalLoop=1;jettySize=auto;html=1;fillColor=#e1d5e7;strokeColor=#9673a6;" edge="1" parent="1" source="yEf3IRso2apgzS4StsU_-18" target="yEf3IRso2apgzS4StsU_-3">
          <mxGeometry relative="1" as="geometry" />
        </mxCell>
        <mxCell id="yEf3IRso2apgzS4StsU_-18" value="EmailValidation" style="rounded=0;whiteSpace=wrap;html=1;strokeColor=#9673a6;fillColor=#FFFFFF;" vertex="1" parent="1">
          <mxGeometry x="127.5" y="860" width="165" height="40" as="geometry" />
        </mxCell>
        <mxCell id="yEf3IRso2apgzS4StsU_-22" style="edgeStyle=orthogonalEdgeStyle;rounded=0;orthogonalLoop=1;jettySize=auto;html=1;fillColor=#e1d5e7;strokeColor=#9673a6;" edge="1" parent="1" source="yEf3IRso2apgzS4StsU_-19" target="yEf3IRso2apgzS4StsU_-3">
          <mxGeometry relative="1" as="geometry" />
        </mxCell>
        <mxCell id="yEf3IRso2apgzS4StsU_-19" value="ValidationComposite" style="rounded=0;whiteSpace=wrap;html=1;strokeColor=#9673a6;fillColor=#FFFFFF;" vertex="1" parent="1">
          <mxGeometry x="127.5" y="925" width="165" height="40" as="geometry" />
        </mxCell>
        <mxCell id="yEf3IRso2apgzS4StsU_-23" value="Validation" style="text;html=1;align=center;verticalAlign=middle;resizable=0;points=[];autosize=1;strokeColor=none;fillColor=none;fontStyle=1" vertex="1" parent="1">
          <mxGeometry x="260" y="724" width="80" height="30" as="geometry" />
        </mxCell>
      </root>
    </mxGraphModel>
  </diagram>
</mxfile>
